<svg fill="none" xmlns="http://www.w3.org/2000/svg" viewBox="0 0 80 80">
  <mask id="a" fill="#fff">
    <path d="M46.188 55c-.45 0-.813-.28-.813-.625v-28.75c0-.346.363-.625.813-.625.449 0 .812.28.812.625v28.75c0 .346-.363.625-.813.625z"/>
  </mask>
  <path d="M46.188 53c.177 0 .412.053.644.232.236.181.543.568.543 1.143h-4c0 1.906 1.778 2.625 2.813 2.625v-4zm1.187 1.375v-28.75h-4v28.75h4zm0-28.75c0 .575-.307.962-.543 1.143a1.059 1.059 0 01-.645.232v-4c-1.034 0-2.812.719-2.812 2.625h4zM46.187 27c-.177 0-.412-.053-.644-.232A1.442 1.442 0 0145 25.625h4C49 23.719 47.222 23 46.187 23v4zM45 25.625v28.75h4v-28.75h-4zm0 28.75c0-.575.307-.962.543-1.143.232-.18.467-.232.645-.232v4C47.221 57 49 56.281 49 54.375h-4z" fill="#fff" mask="url(#a)"/>
  <path d="M47.222 27.152c.344.603.673 1.397.976 2.353a7.746 7.746 0 00-.396-.664 4.427 4.427 0 00-.695-.826 2.393 2.393 0 00-.446-.322 6.878 6.878 0 01-.134-.66 15.96 15.96 0 01-.116-.897c.206.147.483.441.81 1.016z" stroke="#fff" stroke-width="2"/>
  <mask id="b" fill="#fff">
    <path d="M34 36.25c-2.756 0-5-1.963-5-4.375v-6.25c0-.346.32-.625.714-.625.395 0 .883.28.883.625v6.25c0 1.723 1.434 2.625 3.403 2.625 1.97 0 3.5-1 3.5-2.5v-6.375c0-.346.39-.625.786-.625.395 0 .714.28.714.625v6.25c0 2.412-2.244 4.375-5 4.375z"/>
  </mask>
  <path d="M34 34.25c-1.911 0-3-1.31-3-2.375h-4c0 3.759 3.398 6.375 7 6.375v-4zm-3-2.375v-6.25h-4v6.25h4zm0-6.25A1.332 1.332 0 0129.714 27v-4c-1.24 0-2.714.932-2.714 2.625h4zM29.714 27a.887.887 0 01-.512-.148c-.076-.05-.605-.423-.605-1.227h4c0-1.15-.774-1.835-1.192-2.111a3.116 3.116 0 00-1.69-.514v4zm-1.117-1.375v6.25h4v-6.25h-4zm0 6.25c0 1.493.658 2.753 1.785 3.575 1.052.767 2.362 1.05 3.618 1.05v-4c-.713 0-1.105-.168-1.262-.282a.304.304 0 01-.102-.108.515.515 0 01-.04-.235h-4zM34 36.5c1.299 0 2.597-.326 3.63-1.046 1.07-.743 1.87-1.939 1.87-3.454h-4c0 .023-.003.025-.006.03a.49.49 0 01-.148.14c-.223.156-.675.33-1.346.33v4zm5.5-4.5v-6.375h-4V32h4zm0-6.375c0 .621-.346.997-.536 1.143a1.096 1.096 0 01-.678.232v-4c-.646 0-1.27.22-1.76.597-.484.372-1.026 1.061-1.026 2.028h4zM38.286 27c-.45 0-1.286-.373-1.286-1.375h4C41 23.932 39.526 23 38.286 23v4zM37 25.625v6.25h4v-6.25h-4zm0 6.25c0 1.065-1.089 2.375-3 2.375v4c3.602 0 7-2.616 7-6.375h-4z" fill="#fff" mask="url(#b)"/>
  <mask id="c" fill="#fff">
    <path d="M34 55c-.553 0-1-.28-1-.625v-28.75c0-.346.447-.625 1-.625.553 0 1 .28 1 .625v28.75c0 .346-.447.625-1 .625z"/>
  </mask>
  <path d="M34 49c.665 0 1.556.156 2.473.73.835.522 2.527 2.008 2.527 4.645H27c0 2.983 1.915 4.782 3.113 5.53A7.346 7.346 0 0034 61V49zm5 5.375v-28.75H27v28.75h12zm0-28.75c0 2.637-1.692 4.123-2.527 4.646A4.658 4.658 0 0134 31V19a7.346 7.346 0 00-3.887 1.095c-1.198.748-3.113 2.547-3.113 5.53h12zM34 31a4.658 4.658 0 01-2.473-.73C30.692 29.75 29 28.263 29 25.626h12c0-2.983-1.915-4.782-3.113-5.53A7.346 7.346 0 0034 19v12zm-5-5.375v28.75h12v-28.75H29zm0 28.75c0-2.638 1.692-4.123 2.527-4.646A4.658 4.658 0 0134 49v12a7.346 7.346 0 003.887-1.095c1.198-.748 3.113-2.547 3.113-5.53H29z" fill="#fff" mask="url(#c)"/>
</svg>
